<svg xmlns="http://www.w3.org/2000/svg" viewBox="0 0 500 500">
  <circle cx="250" cy="250" r="225" fill="none" stroke="black" stroke-width="25"/>
  
  <g transform="translate(250, 250)">
    <g transform="translate(0, -110)">
      <path d="M0,-110 C-30,-90 -60,-30 -60,20 C-60,50 -40,80 -20,100 C-10,110 10,110 20,100 C40,80 60,50 60,20 C60,-30 30,-90 0,-110 Z M-40,0 C-50,20 -50,50 -40,70 M40,0 C50,20 50,50 40,70 M-20,30 C-30,50 -30,70 -20,90 M20,30 C30,50 30,70 20,90" fill="black"/>
      <path d="M0,-90 L0,90" stroke="white" stroke-width="5" fill="none"/>
    </g>
    <g transform="rotate(120) translate(0, -110)">
      <path d="M0,-110 C-30,-90 -60,-30 -60,20 C-60,50 -40,80 -20,100 C-10,110 10,110 20,100 C40,80 60,50 60,20 C60,-30 30,-90 0,-110 Z M-40,0 C-50,20 -50,50 -40,70 M40,0 C50,20 50,50 40,70 M-20,30 C-30,50 -30,70 -20,90 M20,30 C30,50 30,70 20,90" fill="black"/>
      <path d="M0,-90 L0,90" stroke="white" stroke-width="5" fill="none"/>
    </g>
    <g transform="rotate(240) translate(0, -110)">
      <path d="M0,-110 C-30,-90 -60,-30 -60,20 C-60,50 -40,80 -20,100 C-10,110 10,110 20,100 C40,80 60,50 60,20 C60,-30 30,-90 0,-110 Z M-40,0 C-50,20 -50,50 -40,70 M40,0 C50,20 50,50 40,70 M-20,30 C-30,50 -30,70 -20,90 M20,30 C30,50 30,70 20,90" fill="black"/>
      <path d="M0,-90 L0,90" stroke="white" stroke-width="5" fill="none"/>
    </g>
  </g>
</svg>